# xmcd
#
# Track frame offsets: 
#        150
#        17471
#        38808
#        57643
#        80351
#        96320
#        116418
#        135164
#        153353
#        173610
#
# Disc length: 2596 seconds
#
# Revision: 0
# Processed by: cddbd v1.5.2PL0 Copyright (c) Steve Scherf et al.
# Submitted via: ExactAudioCopy v0.99pb4
#
DISCID=6f0a220a
DTITLE=Mac Davis - Texas In My Rear View Mirror
DYEAR=1980
DGENRE=Pop
TTITLE0=Hooked On Music
TTITLE1=Remember When (Beverly's Song)
TTITLE2=Me and Fat Boy
TTITLE3=Hot Texas Night
TTITLE4=Sad Songs
TTITLE5=Texas In My Rear View Mirror
TTITLE6=Hello Hollywood
TTITLE7=Rodeo Clown
TTITLE8=Secrets
TTITLE9=In the Eyes Of My People
EXTD=
EXTT0=
EXTT1=
EXTT2=
EXTT3=
EXTT4=
EXTT5=
EXTT6=
EXTT7=
EXTT8=
EXTT9=
PLAYORDER=
